<?xml version="1.0" ?><!DOCTYPE svg  PUBLIC '-//W3C//DTD SVG 1.1//EN'  'http://www.w3.org/Graphics/SVG/1.1/DTD/svg11.dtd'><svg enable-background="new 0 0 512 512" height="512px" id="Layer_1" version="1.1" viewBox="0 0 512 512" width="512px" xml:space="preserve" xmlns="http://www.w3.org/2000/svg" xmlns:xlink="http://www.w3.org/1999/xlink"><g><path clip-rule="evenodd" d="M255.625,103.21c116.103,0,214.4,67.073,247.672,159.606   c0.89,3.334,2.61,11.492,4.529,22.934c-42.008,72.223-138.18,121.907-249.198,121.907C142.604,407.657,43.495,352.979,4,275.89   c0,0,1.873-6.184,3.015-10.452C39.363,171.551,138.42,103.21,255.625,103.21L255.625,103.21z M254.849,178.601   c-50.685,0-91.774,41.089-91.774,91.774c0,50.682,41.089,91.771,91.774,91.771c50.68,0,91.769-41.089,91.769-91.771   C346.617,219.69,305.528,178.601,254.849,178.601L254.849,178.601z M212.212,167.196c-38.821,16.576-66.027,55.097-66.027,99.977   c0,60.012,48.65,108.66,108.664,108.66c60.011,0,108.658-48.648,108.658-108.66c0-42.54-24.441-79.362-60.045-97.202   c78.376,14.733,143.657,60.599,178.342,122.191c-48.891,55.582-132.524,92.223-227.499,92.223   c-99.175,0-185.983-39.945-233.775-99.689C58.942,222.381,129.271,177.542,212.212,167.196L212.212,167.196z" fill-rule="evenodd"/><path clip-rule="evenodd" d="M254.849,199.818c-35.137,0-63.619,28.482-63.619,63.619   s28.482,63.615,63.619,63.615c35.135,0,63.613-28.479,63.613-63.615S289.983,199.818,254.849,199.818L254.849,199.818z    M269.145,219.887c-13.321,0-24.12,10.8-24.12,24.122s10.798,24.12,24.12,24.12c13.324,0,24.126-10.798,24.126-24.12   S282.469,219.887,269.145,219.887L269.145,219.887z" fill-rule="evenodd"/></g></svg>